
<svg width="512" height="512" version="1.1" xmlns="http://www.w3.org/2000/svg" desc="Created with imagetracer.js version 1.2.6" ><path fill="rgb(0,0,0)" stroke="rgb(0,0,0)" stroke-width="1" opacity="0" d="M 0 0 L 511.5 0 L 512 0.5 L 512 80.5 L 511 80.5 Q 509.6 74.4 504.5 72 L 502 70.5 L 502 55.5 L 499 44.5 Q 493.8 33.2 484.5 26 Q 473.5 15.5 450.5 17 Q 430.7 20.7 421 34.5 L 413 50.5 L 412 55.5 L 412 70.5 L 410.5 72 L 404 77.5 L 402 81.5 L 402 272.5 L 407.5 281 L 412 283 L 412 413.5 L 414 417.5 L 428.5 432 L 442 444.5 L 442 461.5 Q 443.5 468 448.5 471 Q 452.5 474 460.5 473 Q 466.3 471.8 469 467.5 L 472 461.5 L 472 444.5 L 483.5 433 L 500 417.5 L 502 413.5 L 502 283 L 509 278.5 L 511.5 273 L 512 512 L 0.5 512 L 0 511.5 L 0 493.5 L 1 493.5 L 1 495.5 L 5.5 501 L 11.5 504 L 360.5 504 Q 367 502.5 370 497.5 L 372 492.5 L 372 19.5 Q 370.5 13 365.5 10 L 360.5 8 L 11.5 8 L 3 13.5 L 0.5 19 L 0 0 Z " /><path fill="rgb(0,0,0)" stroke="rgb(0,0,0)" stroke-width="1" opacity="0" d="M 30 38 L 342 38 L 342 474 L 30 474 L 30 38 Z M 128 75 L 118 79 L 114 86 Q 112 96 117 101 L 127 106 L 246 106 L 253 103 Q 258 99 259 92 Q 259 84 255 81 Q 251 76 245 75 L 128 75 Z M 81 173 L 74 176 Q 68 180 67 188 Q 67 195 71 199 L 78 203 L 295 203 L 300 200 L 305 191 Q 306 183 302 180 Q 299 174 292 173 L 81 173 Z M 79 241 L 75 243 Q 68 246 67 255 L 70 265 Q 73 269 80 271 L 293 271 L 298 269 Q 304 266 305 258 Q 305 249 301 245 L 294 241 L 79 241 Z M 78 309 L 73 312 Q 68 316 67 323 L 70 333 Q 74 337 81 339 L 292 339 L 299 336 Q 304 333 305 326 L 305 322 L 302 315 L 295 309 L 78 309 Z M 81 406 L 74 409 Q 68 413 67 421 Q 67 428 71 432 Q 75 436 82 437 L 140 437 L 148 434 Q 152 431 154 425 Q 155 417 152 414 Q 149 407 141 406 L 81 406 Z M 232 406 L 225 409 Q 219 412 218 420 L 218 424 L 221 431 Q 225 436 233 437 L 291 437 L 299 434 Q 303 430 305 424 L 305 420 L 302 413 Q 298 408 292 406 L 232 406 Z " /><path fill="rgb(0,0,0)" stroke="rgb(0,0,0)" stroke-width="1" opacity="0" d="M 454.5 47 L 459.5 47 L 468 51 L 472 59.5 L 472 70 L 442 70 L 442 59.5 L 446 51 L 454.5 47 Z " /><path fill="rgb(0,0,0)" stroke="rgb(0,0,0)" stroke-width="1" opacity="0" d="M 432 101 L 481.5 101 L 482 101.5 L 482 254 L 432.5 254 L 432 253.5 L 432 101 Z " /><path fill="rgb(0,0,0)" stroke="rgb(0,0,0)" stroke-width="1" opacity="0" d="M 442 284 L 471.5 284 L 472 284.5 L 472 402.5 L 459.5 415 L 456.5 416 L 442 402.5 L 442 284 Z " /><path fill="rgb(0,0,0)" stroke="rgb(0,0,0)" stroke-width="1" opacity="0.7529411764705882" d="M 8.5 9 L 7.5 11 L 8.5 9 Z " /><path fill="rgb(0,0,0)" stroke="rgb(0,0,0)" stroke-width="1" opacity="0.7529411764705882" d="M 365.5 10 L 369.5 15 L 365.5 10 Z " /><path fill="rgb(0,0,0)" stroke="rgb(0,0,0)" stroke-width="1" opacity="0.7529411764705882" d="M 5.5 11 L 3.5 14 L 5.5 11 Z " /><path fill="rgb(0,0,0)" stroke="rgb(0,0,0)" stroke-width="1" opacity="0.7529411764705882" d="M 450.5 17 L 454 17.5 L 450.5 18 L 450.5 17 Z " /><path fill="rgb(0,0,0)" stroke="rgb(0,0,0)" stroke-width="1" opacity="0.7529411764705882" d="M 460.5 17 L 464 17.5 L 460.5 18 L 460.5 17 Z " /><path fill="rgb(0,0,0)" stroke="rgb(0,0,0)" stroke-width="1" opacity="0.7529411764705882" d="M 429.5 26 L 427.5 29 L 429.5 26 Z " /><path fill="rgb(0,0,0)" stroke="rgb(0,0,0)" stroke-width="1" opacity="0.7529411764705882" d="M 484.5 26 L 486.5 29 L 484.5 26 Z " /><path fill="rgb(0,0,0)" stroke="rgb(0,0,0)" stroke-width="1" opacity="0.7529411764705882" d="M 423.5 32 L 421.5 35 L 423.5 32 Z " /><path fill="rgb(0,0,0)" stroke="rgb(0,0,0)" stroke-width="1" opacity="0.7529411764705882" d="M 490.5 32 L 492.5 35 L 490.5 32 Z " /><path fill="rgb(0,0,0)" stroke="rgb(0,0,0)" stroke-width="1" opacity="0.7529411764705882" d="M 342.5 38 L 343 473.5 L 342 473.5 L 342.5 38 Z " /><path fill="rgb(0,0,0)" stroke="rgb(0,0,0)" stroke-width="1" opacity="0.7529411764705882" d="M 448.5 49 L 447.5 51 L 448.5 49 Z " /><path fill="rgb(0,0,0)" stroke="rgb(0,0,0)" stroke-width="1" opacity="0.7529411764705882" d="M 465.5 49 L 466.5 51 L 465.5 49 Z " /><path fill="rgb(0,0,0)" stroke="rgb(0,0,0)" stroke-width="1" opacity="0.7529411764705882" d="M 445.5 52 L 444.5 54 L 445.5 52 Z " /><path fill="rgb(0,0,0)" stroke="rgb(0,0,0)" stroke-width="1" opacity="0.7529411764705882" d="M 468.5 52 L 469.5 54 L 468.5 52 Z " /><path fill="rgb(0,0,0)" stroke="rgb(0,0,0)" stroke-width="1" opacity="0.7529411764705882" d="M 412.5 55 L 413 58.5 L 412 58.5 L 412.5 55 Z " /><path fill="rgb(0,0,0)" stroke="rgb(0,0,0)" stroke-width="1" opacity="0.7529411764705882" d="M 501.5 55 L 502 59.5 L 501 59.5 L 501.5 55 Z " /><path fill="rgb(0,0,0)" stroke="rgb(0,0,0)" stroke-width="1" opacity="0.7529411764705882" d="M 442.5 70 L 472 70.5 L 442.5 71 L 442.5 70 Z " /><path fill="rgb(0,0,0)" stroke="rgb(0,0,0)" stroke-width="1" opacity="0.7529411764705882" d="M 409.5 72 L 408.5 74 L 409.5 72 Z " /><path fill="rgb(0,0,0)" stroke="rgb(0,0,0)" stroke-width="1" opacity="0.7529411764705882" d="M 504.5 72 L 505.5 74 L 504.5 72 Z " /><path fill="rgb(0,0,0)" stroke="rgb(0,0,0)" stroke-width="1" opacity="0.7529411764705882" d="M 127.5 75 L 245 75.5 L 127.5 76 L 127.5 75 Z " /><path fill="rgb(0,0,0)" stroke="rgb(0,0,0)" stroke-width="1" opacity="0.7529411764705882" d="M 253.5 79 L 254.5 81 L 253.5 79 Z " /><path fill="rgb(0,0,0)" stroke="rgb(0,0,0)" stroke-width="1" opacity="0.7529411764705882" d="M 402.5 81 L 403 83.5 L 402 83.5 L 402.5 81 Z " /><path fill="rgb(0,0,0)" stroke="rgb(0,0,0)" stroke-width="1" opacity="0.7529411764705882" d="M 511.5 81 L 512 83.5 L 511 83.5 L 511.5 81 Z " /><path fill="rgb(0,0,0)" stroke="rgb(0,0,0)" stroke-width="1" opacity="0.7529411764705882" d="M 258.5 89 L 259 91.5 L 258 91.5 L 258.5 89 Z " /><path fill="rgb(0,0,0)" stroke="rgb(0,0,0)" stroke-width="1" opacity="0.7529411764705882" d="M 255.5 99 L 252.5 103 L 255.5 99 Z " /><path fill="rgb(0,0,0)" stroke="rgb(0,0,0)" stroke-width="1" opacity="0.7529411764705882" d="M 117.5 100 L 118.5 102 L 117.5 100 Z " /><path fill="rgb(0,0,0)" stroke="rgb(0,0,0)" stroke-width="1" opacity="0.7529411764705882" d="M 432.5 100 L 482 100.5 L 432.5 101 L 432.5 100 Z " /><path fill="rgb(0,0,0)" stroke="rgb(0,0,0)" stroke-width="1" opacity="0.7529411764705882" d="M 126.5 105 L 246 105.5 L 126.5 106 L 126.5 105 Z " /><path fill="rgb(0,0,0)" stroke="rgb(0,0,0)" stroke-width="1" opacity="0.7529411764705882" d="M 80.5 173 L 292 173.5 L 80.5 174 L 80.5 173 Z " /><path fill="rgb(0,0,0)" stroke="rgb(0,0,0)" stroke-width="1" opacity="0.7529411764705882" d="M 73.5 176 L 70.5 180 L 73.5 176 Z " /><path fill="rgb(0,0,0)" stroke="rgb(0,0,0)" stroke-width="1" opacity="0.7529411764705882" d="M 298.5 176 L 301.5 180 L 298.5 176 Z " /><path fill="rgb(0,0,0)" stroke="rgb(0,0,0)" stroke-width="1" opacity="0.7529411764705882" d="M 302.5 181 L 304 183.5 L 303 183.5 L 302.5 181 Z " /><path fill="rgb(0,0,0)" stroke="rgb(0,0,0)" stroke-width="1" opacity="0.7529411764705882" d="M 304.5 186 L 305 190.5 L 304 190.5 L 304.5 186 Z " /><path fill="rgb(0,0,0)" stroke="rgb(0,0,0)" stroke-width="1" opacity="0.7529411764705882" d="M 67.5 187 L 68 189.5 L 67 189.5 L 67.5 187 Z " /><path fill="rgb(0,0,0)" stroke="rgb(0,0,0)" stroke-width="1" opacity="0.7529411764705882" d="M 301.5 197 L 299.5 200 L 301.5 197 Z " /><path fill="rgb(0,0,0)" stroke="rgb(0,0,0)" stroke-width="1" opacity="0.7529411764705882" d="M 71.5 198 L 72.5 200 L 71.5 198 Z " /><path fill="rgb(0,0,0)" stroke="rgb(0,0,0)" stroke-width="1" opacity="0.7529411764705882" d="M 296.5 242 L 297.5 244 L 296.5 242 Z " /><path fill="rgb(0,0,0)" stroke="rgb(0,0,0)" stroke-width="1" opacity="0.7529411764705882" d="M 70.5 247 L 69.5 249 L 70.5 247 Z " /><path fill="rgb(0,0,0)" stroke="rgb(0,0,0)" stroke-width="1" opacity="0.7529411764705882" d="M 304.5 253 L 305 257.5 L 304 257.5 L 304.5 253 Z " /><path fill="rgb(0,0,0)" stroke="rgb(0,0,0)" stroke-width="1" opacity="0.7529411764705882" d="M 67.5 254 L 68 256.5 L 67 256.5 L 67.5 254 Z " /><path fill="rgb(0,0,0)" stroke="rgb(0,0,0)" stroke-width="1" opacity="0.7529411764705882" d="M 302.5 263 L 301.5 265 L 302.5 263 Z " /><path fill="rgb(0,0,0)" stroke="rgb(0,0,0)" stroke-width="1" opacity="0.7529411764705882" d="M 70.5 264 L 74.5 269 L 70.5 264 Z " /><path fill="rgb(0,0,0)" stroke="rgb(0,0,0)" stroke-width="1" opacity="0.7529411764705882" d="M 298.5 267 L 297.5 269 L 298.5 267 Z " /><path fill="rgb(0,0,0)" stroke="rgb(0,0,0)" stroke-width="1" opacity="0.7529411764705882" d="M 79.5 270 L 293 270.5 L 79.5 271 L 79.5 270 Z " /><path fill="rgb(0,0,0)" stroke="rgb(0,0,0)" stroke-width="1" opacity="0.7529411764705882" d="M 405.5 278 L 407.5 281 L 405.5 278 Z " /><path fill="rgb(0,0,0)" stroke="rgb(0,0,0)" stroke-width="1" opacity="0.7529411764705882" d="M 508.5 278 L 506.5 281 L 508.5 278 Z " /><path fill="rgb(0,0,0)" stroke="rgb(0,0,0)" stroke-width="1" opacity="0.7529411764705882" d="M 72.5 312 L 71.5 314 L 72.5 312 Z " /><path fill="rgb(0,0,0)" stroke="rgb(0,0,0)" stroke-width="1" opacity="0.7529411764705882" d="M 299.5 312 L 301.5 315 L 299.5 312 Z " /><path fill="rgb(0,0,0)" stroke="rgb(0,0,0)" stroke-width="1" opacity="0.7529411764705882" d="M 304.5 321 L 305 325.5 L 304 325.5 L 304.5 321 Z " /><path fill="rgb(0,0,0)" stroke="rgb(0,0,0)" stroke-width="1" opacity="0.7529411764705882" d="M 67.5 322 L 68 324.5 L 67 324.5 L 67.5 322 Z " /><path fill="rgb(0,0,0)" stroke="rgb(0,0,0)" stroke-width="1" opacity="0.7529411764705882" d="M 303.5 328 L 304 329.5 L 302 330.5 L 303.5 328 Z " /><path fill="rgb(0,0,0)" stroke="rgb(0,0,0)" stroke-width="1" opacity="0.7529411764705882" d="M 70.5 332 L 73.5 336 L 70.5 332 Z " /><path fill="rgb(0,0,0)" stroke="rgb(0,0,0)" stroke-width="1" opacity="0.7529411764705882" d="M 301.5 332 L 298.5 336 L 301.5 332 Z " /><path fill="rgb(0,0,0)" stroke="rgb(0,0,0)" stroke-width="1" opacity="0.7529411764705882" d="M 80.5 338 L 292 338.5 L 80.5 339 L 80.5 338 Z " /><path fill="rgb(0,0,0)" stroke="rgb(0,0,0)" stroke-width="1" opacity="0.7529411764705882" d="M 442.5 403 L 448.5 410 L 442.5 403 Z " /><path fill="rgb(0,0,0)" stroke="rgb(0,0,0)" stroke-width="1" opacity="0.7529411764705882" d="M 471.5 403 L 464.5 411 L 471.5 403 Z " /><path fill="rgb(0,0,0)" stroke="rgb(0,0,0)" stroke-width="1" opacity="0.7529411764705882" d="M 80.5 406 L 141 406.5 L 80.5 407 L 80.5 406 Z " /><path fill="rgb(0,0,0)" stroke="rgb(0,0,0)" stroke-width="1" opacity="0.7529411764705882" d="M 231.5 406 L 292 406.5 L 231.5 407 L 231.5 406 Z " /><path fill="rgb(0,0,0)" stroke="rgb(0,0,0)" stroke-width="1" opacity="0.7529411764705882" d="M 146.5 408 L 148.5 411 L 146.5 408 Z " /><path fill="rgb(0,0,0)" stroke="rgb(0,0,0)" stroke-width="1" opacity="0.7529411764705882" d="M 73.5 409 L 70.5 413 L 73.5 409 Z " /><path fill="rgb(0,0,0)" stroke="rgb(0,0,0)" stroke-width="1" opacity="0.7529411764705882" d="M 224.5 409 L 221.5 413 L 224.5 409 Z " /><path fill="rgb(0,0,0)" stroke="rgb(0,0,0)" stroke-width="1" opacity="0.7529411764705882" d="M 298.5 409 L 301.5 413 L 298.5 409 Z " /><path fill="rgb(0,0,0)" stroke="rgb(0,0,0)" stroke-width="1" opacity="0.7529411764705882" d="M 412.5 411 L 413 413.5 L 412 413.5 L 412.5 411 Z " /><path fill="rgb(0,0,0)" stroke="rgb(0,0,0)" stroke-width="1" opacity="0.7529411764705882" d="M 501.5 411 L 502 413.5 L 501 413.5 L 501.5 411 Z " /><path fill="rgb(0,0,0)" stroke="rgb(0,0,0)" stroke-width="1" opacity="0.7529411764705882" d="M 150.5 412 L 151.5 414 L 150.5 412 Z " /><path fill="rgb(0,0,0)" stroke="rgb(0,0,0)" stroke-width="1" opacity="0.7529411764705882" d="M 220.5 414 L 220 415.5 L 219.5 417 L 219 415.5 L 220.5 414 Z " /><path fill="rgb(0,0,0)" stroke="rgb(0,0,0)" stroke-width="1" opacity="0.7529411764705882" d="M 455.5 415 L 457.5 416 L 459 415.5 L 456.5 417 L 455.5 415 Z " /><path fill="rgb(0,0,0)" stroke="rgb(0,0,0)" stroke-width="1" opacity="0.7529411764705882" d="M 153.5 418 L 154 424.5 L 153 424.5 L 153.5 418 Z " /><path fill="rgb(0,0,0)" stroke="rgb(0,0,0)" stroke-width="1" opacity="0.7529411764705882" d="M 218.5 419 L 219 423.5 L 218 423.5 L 218.5 419 Z " /><path fill="rgb(0,0,0)" stroke="rgb(0,0,0)" stroke-width="1" opacity="0.7529411764705882" d="M 304.5 419 L 305 423.5 L 304 423.5 L 304.5 419 Z " /><path fill="rgb(0,0,0)" stroke="rgb(0,0,0)" stroke-width="1" opacity="0.7529411764705882" d="M 67.5 420 L 68 422.5 L 67 422.5 L 67.5 420 Z " /><path fill="rgb(0,0,0)" stroke="rgb(0,0,0)" stroke-width="1" opacity="0.7529411764705882" d="M 420.5 423 L 428.5 432 L 420.5 423 Z " /><path fill="rgb(0,0,0)" stroke="rgb(0,0,0)" stroke-width="1" opacity="0.7529411764705882" d="M 492.5 424 L 484.5 433 L 492.5 424 Z " /><path fill="rgb(0,0,0)" stroke="rgb(0,0,0)" stroke-width="1" opacity="0.7529411764705882" d="M 151.5 429 L 147.5 434 L 151.5 429 Z " /><path fill="rgb(0,0,0)" stroke="rgb(0,0,0)" stroke-width="1" opacity="0.7529411764705882" d="M 221.5 430 L 224.5 434 L 221.5 430 Z " /><path fill="rgb(0,0,0)" stroke="rgb(0,0,0)" stroke-width="1" opacity="0.7529411764705882" d="M 301.5 430 L 298.5 434 L 301.5 430 Z " /><path fill="rgb(0,0,0)" stroke="rgb(0,0,0)" stroke-width="1" opacity="0.7529411764705882" d="M 71.5 431 L 72.5 433 L 71.5 431 Z " /><path fill="rgb(0,0,0)" stroke="rgb(0,0,0)" stroke-width="1" opacity="0.7529411764705882" d="M 81.5 436 L 140 436.5 L 81.5 437 L 81.5 436 Z " /><path fill="rgb(0,0,0)" stroke="rgb(0,0,0)" stroke-width="1" opacity="0.7529411764705882" d="M 232.5 436 L 291 436.5 L 232.5 437 L 232.5 436 Z " /><path fill="rgb(0,0,0)" stroke="rgb(0,0,0)" stroke-width="1" opacity="0.7529411764705882" d="M 435.5 437 L 441.5 444 L 435.5 437 Z " /><path fill="rgb(0,0,0)" stroke="rgb(0,0,0)" stroke-width="1" opacity="0.7529411764705882" d="M 477.5 438 L 472.5 444 L 477.5 438 Z " /><path fill="rgb(0,0,0)" stroke="rgb(0,0,0)" stroke-width="1" opacity="0.7529411764705882" d="M 444.5 466 L 448.5 471 L 444.5 466 Z " /><path fill="rgb(0,0,0)" stroke="rgb(0,0,0)" stroke-width="1" opacity="0.7529411764705882" d="M 468.5 467 L 465.5 471 L 468.5 467 Z " /><path fill="rgb(0,0,0)" stroke="rgb(0,0,0)" stroke-width="1" opacity="0.7529411764705882" d="M 1.5 495 L 2.5 497 L 1.5 495 Z " /><path fill="rgb(0,0,0)" stroke="rgb(0,0,0)" stroke-width="1" opacity="0.7529411764705882" d="M 369.5 497 L 365.5 502 L 369.5 497 Z " /><path fill="rgb(0,0,0)" stroke="rgb(0,0,0)" stroke-width="1" opacity="0.7529411764705882" d="M 3.5 498 L 5.5 501 L 3.5 498 Z " /><path fill="rgb(0,0,0)" stroke="rgb(0,0,0)" stroke-width="1" opacity="0.7529411764705882" d="M 7.5 501 L 8.5 503 L 7.5 501 Z " /><path fill="rgb(0,0,0)" stroke="rgb(0,0,0)" stroke-width="1" opacity="1" d="M 13.5 8 L 358.5 8 Q 366.6 9.4 370 15.5 L 372 20.5 L 372 491.5 Q 370.2 498.7 364.5 502 L 358.5 504 L 13.5 504 Q 6.1 502.9 3 497.5 L 0 490.5 L 0 21.5 Q 1.1 14.1 6.5 11 L 13.5 8 Z M 30 38 L 30 474 L 343 474 L 343 38 L 30 38 Z " /><path fill="rgb(0,0,0)" stroke="rgb(0,0,0)" stroke-width="1" opacity="1" d="M 454.5 17 Q 478.8 17.8 490 31.5 Q 496.6 38.4 500 48.5 L 501 59.5 L 502 60.5 L 502 72 L 509 76.5 L 512 84.5 L 512 270.5 Q 510.6 278.6 504.5 282 L 502 283.5 L 502 410.5 Q 500.3 419.8 493.5 424 L 472 443.5 Q 473.6 455.6 471 463.5 L 464.5 471 L 455.5 473 Q 447.4 471.6 444 465.5 Q 440 457.5 442 443.5 L 435.5 437 L 415 418.5 L 412 410.5 L 412 283.5 L 410.5 282 L 404 276.5 L 402 270.5 L 402 84.5 L 405 76.5 L 407.5 74 L 412 72 L 412 59.5 L 414 48.5 Q 418 36.5 426.5 29 L 438.5 21 L 454.5 17 Z M 453 47 L 449 49 L 442 58 L 442 71 L 472 71 L 472 58 L 470 54 L 462 47 L 453 47 Z M 432 100 L 432 254 L 433 254 L 482 254 L 482 101 L 482 100 L 432 100 Z M 442 284 L 442 404 L 457 417 L 472 404 L 472 285 L 472 284 L 442 284 Z " /><path fill="rgb(0,0,0)" stroke="rgb(0,0,0)" stroke-width="1" opacity="1" d="M 125.5 76 L 246.5 76 Q 253 77.5 256 82.5 Q 258.9 86.1 258 93.5 Q 256.5 100 251.5 103 L 247.5 105 L 124.5 105 L 116 98.5 Q 113.1 94.9 114 87.5 Q 115.5 81 120.5 78 L 125.5 76 Z " /><path fill="rgb(0,0,0)" stroke="rgb(0,0,0)" stroke-width="1" opacity="1" d="M 78.5 174 L 293.5 174 Q 299.6 175.4 302 180.5 Q 305.3 184.2 304 192.5 L 297.5 201 L 292.5 203 L 79.5 203 Q 73 201.5 70 196.5 Q 67 192.5 68 184.5 L 74.5 176 L 78.5 174 Z " /><path fill="rgb(0,0,0)" stroke="rgb(0,0,0)" stroke-width="1" opacity="1" d="M 80.5 241 L 291.5 241 Q 298.9 242.1 302 247.5 Q 305.3 251.2 304 259.5 L 299.5 267 L 294.5 270 L 77.5 270 L 70 263.5 Q 66.8 260.2 68 252.5 L 73.5 244 L 80.5 241 Z " /><path fill="rgb(0,0,0)" stroke="rgb(0,0,0)" stroke-width="1" opacity="1" d="M 79.5 309 L 292.5 309 Q 299 310.5 302 315.5 Q 305.3 319.2 304 327.5 L 296.5 337 L 293.5 338 L 78.5 338 L 70 331.5 Q 66.8 328.2 68 320.5 Q 69.5 314 74.5 311 L 79.5 309 Z " /><path fill="rgb(0,0,0)" stroke="rgb(0,0,0)" stroke-width="1" opacity="1" d="M 78.5 407 L 142.5 407 L 150 411 L 153 416.5 L 153 425.5 Q 151.6 431.6 146.5 434 L 142.5 436 L 79.5 436 Q 73 434.5 70 429.5 Q 67 425.5 68 417.5 L 74.5 409 L 78.5 407 Z " /><path fill="rgb(0,0,0)" stroke="rgb(0,0,0)" stroke-width="1" opacity="1" d="M 229.5 407 L 293.5 407 L 302 413.5 Q 305.3 417.2 304 425.5 L 297.5 434 L 292.5 436 L 229.5 436 L 221 429.5 Q 217.7 425.8 219 417.5 L 225.5 409 L 229.5 407 Z " /></svg>